<svg viewBox="0 0 200 200" xmlns="http://www.w3.org/2000/svg">
  <path fill="#F5CB5C" d="M40.7,-70.3C54.3,-62.6,68.1,-54.9,76.7,-43.2C85.3,-31.5,88.7,-15.8,86,-1.5C83.3,12.7,74.5,25.3,65.5,36.2C56.4,47,47,56.1,36,62.9C25.1,69.8,12.5,74.4,-1.9,77.8C-16.4,81.2,-32.8,83.2,-43.8,76.4C-54.8,69.5,-60.3,53.8,-67.3,39.5C-74.2,25.3,-82.6,12.7,-85,-1.3C-87.3,-15.3,-83.5,-30.7,-76,-44C-68.5,-57.3,-57.3,-68.5,-44,-76.5C-30.7,-84.4,-15.4,-88.9,-0.9,-87.3C13.5,-85.8,27.1,-78,40.7,-70.3Z" transform="translate(100 100)" />
</svg>